<?xml version="1.0" encoding="utf-8"?>
<!-- Generator: Adobe Illustrator 24.1.2, SVG Export Plug-In . SVG Version: 6.00 Build 0)  -->
<svg version="1.1" id="Layer_1" xmlns="http://www.w3.org/2000/svg" xmlns:xlink="http://www.w3.org/1999/xlink" x="0px" y="0px"
	 viewBox="0 0 440 305" style="enable-background:new 0 0 440 305;" xml:space="preserve">
<style type="text/css">
	.st0{fill:none;stroke:#000000;}
	.st1{stroke:#FFFFFF;stroke-width:0.75;}
</style>
<path class="st0" d="M153.7,286.5v-18.9l-9.2,16H144l-9.2-16v18.9h-1v-21h0.8l9.7,16.8l9.6-16.8h0.8v21H153.7z"/>
<path class="st0" d="M161.1,276c0-6.1,4.7-10.6,10.8-10.6c6.2,0,10.9,4.5,10.9,10.6s-4.7,10.6-10.9,10.6
	C165.7,286.6,161.1,282.1,161.1,276z M181.7,276c0-5.6-4.2-9.7-9.8-9.7s-9.8,4.1-9.8,9.7s4.2,9.7,9.8,9.7S181.7,281.5,181.7,276z"/>
<path class="st0" d="M205.9,265.5v21h-1v-10.2h-14.7v10.2h-1v-21h1v9.9h14.7v-9.9H205.9z"/>
<path class="st0" d="M228.8,280.3h-12.6l-2.8,6.2h-1.1l9.7-21h1l9.7,21h-1.1L228.8,280.3z M228.4,279.4l-5.9-12.8l-5.9,12.8H228.4z"
	/>
<path class="st0" d="M259.2,286.5v-18.9l-9.2,16h-0.5l-9.2-16v18.9h-1v-21h0.8l9.7,16.8l9.6-16.8h0.8v21H259.2z"/>
<path class="st0" d="M280.7,285.5v0.9h-14.2v-21h13.8v0.9h-12.8v8.9h11.4v0.9h-11.4v9.3h13.2L280.7,285.5L280.7,285.5z"/>
<path class="st0" d="M287.1,265.5h8.1c6.7,0,11.1,4.4,11.1,10.5s-4.5,10.5-11.1,10.5h-8.1V265.5z M295.2,285.5
	c6.2,0,10.2-4,10.2-9.6s-4-9.6-10.2-9.6h-7v19.1h7V285.5z"/>
<path class="st0" d="M133.6,229.8h1v21h-1V229.8z"/>
<path class="st0" d="M164.7,245.3c0,3.5-2.5,5.5-7.7,5.5h-9.1v-21h8.5c4.4,0,7.1,1.8,7.1,5.3c0,2.6-1.5,4.2-3.8,4.9
	C163,240.5,164.7,242.3,164.7,245.3z M149,230.7v9h7.5c3.8,0,6.1-1.5,6.1-4.5s-2.3-4.5-6.1-4.5H149z M163.7,245.3
	c0-3.2-2.3-4.7-6.6-4.7h-8.2v9.3h8.2C161.4,249.9,163.7,248.5,163.7,245.3z"/>
<path class="st0" d="M192.8,250.8l-5.2-7.2c-0.7,0.1-1.5,0.2-2.3,0.2H179v7.1h-1v-21h7.3c5.2,0,8.3,2.6,8.3,7c0,3.4-1.8,5.7-5,6.6
	l5.4,7.5h-1.2V250.8z M185.4,242.8c4.7,0,7.3-2.2,7.3-6.1c0-3.8-2.6-6-7.3-6h-6.3v12.1H185.4z"/>
<path class="st0" d="M223.8,244.7h-12.6l-2.8,6.2h-1.1l9.7-21h1l9.7,21h-1.1L223.8,244.7z M223.4,243.8l-5.9-12.8l-5.9,12.8H223.4z"
	/>
<path class="st0" d="M257.8,229.8v21h-1v-10.2h-14.7v10.2h-1v-21h1v9.9h14.7v-9.9H257.8z"/>
<path class="st0" d="M271.1,229.8h1v21h-1V229.8z"/>
<path class="st0" d="M305.4,250.8v-18.9l-9.2,16h-0.5l-9.2-16v18.9h-1v-21h0.8l9.7,16.8l9.6-16.8h0.8v21H305.4z"/>
<path id="I" class="st1" d="M173,173.7c-0.9,0-1.7-0.7-1.7-1.7V99.3c0-0.9,0.7-1.7,1.7-1.7s1.7,0.7,1.7,1.7V172
	C174.7,173,173.9,173.7,173,173.7z"/>
<path id="M" class="st1" d="M243.2,108.1c0-0.1,0-0.2,0-0.3c0-5.5-4.5-10-10-10c-2.5,0-5,1-6.9,2.7c-0.6,0.5-1.1,1.2-1.5,1.8
	c0,0.1-0.1,0.2-0.1,0.2l-6.9,11.9l-6.9-11.9c0-0.1-0.1-0.2-0.1-0.2c-0.4-0.7-1-1.3-1.5-1.8c-1.9-1.7-4.3-2.7-6.9-2.7
	c-5.5,0-10,4.5-10,10l0,0l0,0l0,64.1c0,0.9,0.7,1.7,1.7,1.7l0,0c0.9,0,1.7-0.7,1.7-1.7l0-64.1c0-3.7,3-6.7,6.7-6.7
	c1.7,0,3.3,0.6,4.6,1.8c0.3,0.3,0.7,0.7,0.9,1.1l0,0l7.9,13.7l-4.9,8.4c-0.3,0.5-0.7,1.4-0.7,3.2c0,4.1,3.4,7.5,7.5,7.5
	c4.1,0,7.5-3.4,7.5-7.5c0-1.8-0.3-2.7-0.7-3.2l-4.9-8.4l7.9-13.7l0,0c0.2-0.4,0.6-0.7,0.9-1.1c1.2-1.2,2.9-1.8,4.6-1.8
	c3.6,0,6.5,2.8,6.7,6.4c0,0.1,0,0.2,0,0.2l0,64.1c0,0.9,0.7,1.7,1.7,1.7l0,0c0.9,0,1.7-0.7,1.7-1.7L243.2,108.1z M221.8,127.9
	C221.8,128,221.9,128,221.8,127.9c0.1,0.2,0.2,0.6,0.2,1.5c0,2.3-1.9,4.2-4.2,4.2s-4.2-1.9-4.2-4.2c0-0.9,0.1-1.3,0.2-1.4
	c0,0,0,0,0-0.1l4-6.8L221.8,127.9z"/>
</svg>
