<?xml version="1.0" encoding="utf-8"?>
<!-- Generator: Adobe Illustrator 24.1.2, SVG Export Plug-In . SVG Version: 6.00 Build 0)  -->
<svg version="1.1" id="Layer_1" xmlns="http://www.w3.org/2000/svg" xmlns:xlink="http://www.w3.org/1999/xlink" x="0px" y="0px"
	 viewBox="0 0 440 305" style="enable-background:new 0 0 440 305;" xml:space="preserve">
<style type="text/css">
	.st0{stroke:#FFFFFF;stroke-width:4;}
	.st1{fill:#FFFFFF;}
	.st2{stroke:#FFFFFF;stroke-width:6;}
</style>
<path class="st0" d="M293.5,167.4l-64,37c-2.5,1.4-5.5,1.4-8,0l-64-37c-2.5-1.4-4-4.1-4-6.9v-74c0-2.9,1.5-5.5,4-6.9l64-37
	c2.5-1.4,5.5-1.4,8,0l64,37c2.5,1.4,4,4.1,4,6.9v74C297.5,163.3,296,166,293.5,167.4z"/>
<path class="st0" d="M147.5,73.6l64-37c2.5-1.4,5.5-1.4,8,0l64,37c2.5,1.4,4,4.1,4,6.9v74c0,2.9-1.5,5.5-4,6.9l-64,37
	c-2.5,1.4-5.5,1.4-8,0l-64-37c-2.5-1.4-4-4.1-4-6.9v-74C143.5,77.7,145,75,147.5,73.6z"/>
<path id="I" class="st1" d="M192.8,152.5c-0.7,0-1.2-0.5-1.2-1.2V94.7c0-0.7,0.5-1.2,1.2-1.2s1.2,0.5,1.2,1.2v56.5
	C194,152,193.5,152.5,192.8,152.5z"/>
<path id="M" class="st1" d="M250.3,101.8c0-0.2,0-0.2,0-0.2c0-4.2-3.5-7.7-7.7-7.7c-1.8,0-3.8,0.8-5.3,2c-0.5,0.5-0.8,0.8-1.2,1.3
	c0,0.2-0.2,0.2-0.2,0.2l-5.3,9.2l-5.3-9.2c0-0.2-0.2-0.2-0.2-0.2c-0.3-0.5-0.8-1-1.2-1.3c-1.5-1.3-3.3-2-5.3-2
	c-4.2,0-7.7,3.5-7.7,7.7l0,0l0,0v49.1c0,0.7,0.5,1.2,1.2,1.2l0,0c0.7,0,1.2-0.5,1.2-1.2v-49.1c0-2.8,2.3-5,5-5
	c1.3,0,2.7,0.5,3.5,1.3c0.2,0.2,0.5,0.5,0.7,0.8l0,0l6.2,10.5l-3.7,6.5c-0.2,0.3-0.5,1.2-0.5,2.5c0,3.2,2.7,5.7,5.7,5.7
	s5.7-2.7,5.7-5.7c0-1.3-0.2-2.2-0.5-2.5l-3.7-6.5l6.2-10.5l0,0c0.2-0.3,0.5-0.5,0.7-0.8c0.8-0.8,2.3-1.3,3.5-1.3c2.7,0,5,2.2,5,5
	c0,0.2,0,0.2,0,0.2v49.1c0,0.7,0.5,1.2,1.2,1.2l0,0c0.7,0,1.2-0.5,1.2-1.2L250.3,101.8z M233.8,117.2
	C233.8,117.2,233.9,117.2,233.8,117.2c0.2,0.2,0.2,0.5,0.2,1.2c0,1.8-1.5,3.2-3.2,3.2s-3.2-1.5-3.2-3.2c0-0.7,0.2-1,0.2-1.2
	c0,0,0,0,0-0.2l3-5.2L233.8,117.2z"/>
<path id="_x31_" class="st2" d="M85.3,235.4c-9.3,1.9-68.3,14.5-40.4,22.2c0.4,0.1,1.4,0.2,1.2,0.6c-0.1,0.4-0.5,0.6-1,0.5
	c-35-10.1,40.7-24.8,41-24.8c0.4-0.1,0.9,0.2,0.9,0.6c0,0.1,0,0.2,0,0.4s-3.5,11.3-7.6,21.5c-1,2.6-1.4,3.5-2.2,5.7
	c-1.7,4.1-2.9,7.1-3.7,8.6c-0.5,0.9-2.1,0.6-1.5-1c0.5-1.4,2-4.5,4.5-10.4C80.2,250.1,83.9,239.1,85.3,235.4z"/>
<path id="_x32_" class="st2" d="M82.3,258.4L82.3,258.4c1.1-4.3,2.9-9.3,4.7-13.4c1.2-2.9,2.7-5.3,4-7.2c1.5-2,3-3.1,4.2-3.1
	c0.5,0,0.9,0.1,1.2,0.5c5,3.9-10.4,21.4-12.8,24c-0.4,1.5-0.6,3-0.7,4.3c1.6-3.6,4.1-7.9,6-5c0.5,0.9,0.7,1.6,0.7,2.5
	c2.2-1.6,4.8-3.1,4.8-3.1c0.4-0.2,0.9-0.1,1,0.2c0.2,0.4,0.1,0.9-0.2,1c0,0-3.5,2.1-5.8,3.6c-0.1,0.5-0.4,1-0.6,1.4
	s-0.5,0.6-0.7,0.9c-0.4,0.2-1.2,0.6-1.5,0.6c-0.5,0-0.9-0.1-1.1-0.6c-0.2-0.6,1.1-1.7,2.4-2.7c0.2-0.9,0.1-1.9-0.5-2.9
	c-1.1-1.7-4.5,7.8-4.7,8.4c-0.1,0.2-0.2,0.5-0.6,0.5c-0.4,0.1-0.9-0.2-0.9-0.6c-0.4-2,0-5,0.7-8.3C82,258.9,82,258.6,82.3,258.4z
	 M95.6,236.3c-0.1-0.1-0.2-0.1-0.4-0.1c-0.7,0-1.9,0.9-3,2.5c-1.2,1.7-2.6,4.2-3.9,7c-1.5,3.2-2.7,6.8-3.7,10.2
	C89.1,250.4,98.7,238.7,95.6,236.3z"/>
<path id="_x33_" class="st2" d="M93.8,261.2c-0.4,0.1-0.9-0.1-0.9-0.5c-0.2-1,1.6-3.1,3.6-5.2c0.5-0.5,1-1,1.4-1.5
	c-0.2,0-0.4,0-0.6,0c-0.6,0-1.2-0.1-1.6-0.4c-0.9-0.4-1-1-0.4-1.7c0.4-0.4,1.2-0.9,2.9-1.5c2.1-0.7,3.1-0.5,3.4,0.2
	c0.1,0.4,0,1-0.4,1.6c1-0.1,1.9-0.4,2.2-0.5c0.5-0.4,1-0.2,1.2,0.2c0.6,1-1.6,3.2-2.6,4.5c-2,2.6-4.7,6.1-5.3,7.5
	c1.6-0.6,3.6-1.5,5.2-2.6c2.4-1.4,4.5-2.9,5.1-3.5c0.2-0.4,0.7-0.4,1.1,0c0.4,0.2,0.4,0.7,0,1.1c-0.7,0.7-2.9,2.4-5.3,3.9
	c-1.9,1.1-4,2.1-5.8,2.7c-1,0.4-1.5,0.1-1.7-0.6c-0.5-1.4,3.1-6,5.7-9.3c0.6-0.9,1.4-1.5,1.9-2c-0.7,0.1-1.7,0.2-2.6,0.4
	c-0.7,0.9-1.5,1.7-2.4,2.6c-1.7,1.7-3.4,3.5-3.2,3.7C94.6,260.7,94.3,261.1,93.8,261.2z M100.2,251.3c0-0.1-0.4,0.2-1.4,0.6
	c-0.6,0.2-1,0.4-1.4,0.5l0,0c0.5,0,1.2,0,1.9,0C99.9,251.9,100.3,251.4,100.2,251.3z"/>
<path id="_x34_" class="st2" d="M113.6,255.3c1.1-1.1,2-2,2.6-2.4c0.4-0.2,0.9-0.1,1.1,0.2c0.1,0.2,0.1,0.5,0,0.7
	c-1,2-1.4,3.6-1.4,4.8c0,0.6,0.1,1.1,0.4,1.5c0.2,0.2,0.5,0.5,0.9,0.5c0.5,0.1,1,0,1.6-0.2s2.1-1.1,4.1-2.2c1.9-1.1,4.1-2.6,6.3-4.3
	c3-9.9,8.4-25,12.8-18c0.2,0.4,0.4,0.6,0.5,1c1.5,3.7-1.4,8.3-5.6,12.5c-2,2-4.2,3.9-6.5,5.6c-0.5,1.6-0.9,3.2-1.2,4.3
	c2.7-2.7,6.8-6.8,5.6-3c-0.5,1.5-0.4,3.4,0.9,4.2c0.6,0.4,1.5,0.6,2.7,0.6c2.1-0.1,5.1-1.1,9.1-3.5c0.4-0.2,0.9-0.1,1,0.2
	c0.2,0.4,0.1,0.9-0.2,1c-4.2,2.5-7.5,3.6-9.8,3.7c-2.1,0.4-4.1-0.6-5-2.1c-0.7-0.9-0.2-2.7-0.9-2.4c-1,0.5-3.7,3.4-4.2,4.2
	c-0.1,0.4-0.5,0.5-0.9,0.4s-0.6-0.5-0.6-0.9c0,0,0.5-2.2,1.5-5.5c-1.7,1.2-3.4,2.4-4.7,3.2c-2,1.2-3.6,2.1-4.3,2.4
	c-0.9,0.4-1.7,0.5-2.5,0.4c-0.7-0.1-1.5-0.5-1.9-1.1s-0.6-1.4-0.7-2.4c0-0.7,0.1-1.5,0.4-2.5c-0.2,0.2-0.5,0.5-0.7,0.7
	c-2.1,2.1-4.6,4.6-5.8,4.7c-0.7,0-1.2-0.4-1.4-1.4c0-0.5,0-0.9,0.1-1.4c0.2-1.2,0.9-2.2,1.7-2.9c0.9-0.7,2-1.1,3.1-1.2
	c0.5,0,0.9,0,1.4,0.1C113.3,255,113.4,255.1,113.6,255.3z M111.8,256.4c-0.9,0-1.6,0.4-2.2,0.9s-1,1.2-1.2,2c0,0.2-0.1,0.5-0.1,0.9
	c0.9-0.4,2.5-2.1,4.1-3.7C112.2,256.4,112,256.4,111.8,256.4z M135.8,248.1c3.9-3.9,6.5-7.8,5.2-10.9c-0.1-0.2-0.2-0.5-0.4-0.7
	c-2.7-4.2-6.8,6.8-9.4,15.7C132.8,250.9,134.4,249.6,135.8,248.1z"/>
<path id="_x35_" class="st2" d="M161.3,251.2c0.4,0.2,0.5,0.6,0.2,1c-0.1,0.2-2.4,4.5-3.5,7c0.4-0.5,1-1.5,1.4-2.1
	c2-2.9,3.9-5.3,5.7-5.2c1.2,0,2.1,1.4,2.4,4.8c2.2-3.5,3.2-4.8,4-4.5c0.5,0.4,0.5,1.4,0.5,2.2c0,1,0,2.4,0.5,3.4
	c0.7,1.6,3.1,2.4,9.6-0.9c0.4-0.1,0.9,0,1,0.4s0,0.9-0.4,1c-7.6,3.7-10.4,2.4-11.6,0.1c-0.6-1.4-0.7-2-0.7-3.1
	c0.1-0.6-1.7,2.6-2.9,4.2l0,0c-0.1,0.2-0.4,0.4-0.6,0.4c-0.4,0-0.7-0.4-0.7-0.7c0-4.3-0.5-5.3-1.1-5.3c-1.1,0-3,2.5-4.7,5.1
	c-1.4,2-2.5,3.7-3.4,3.9c-0.6,0.1-1.1-0.2-1.2-1.1c-0.1-0.5,0.5-2,1.4-3.7c-2,2.1-4.3,4.1-6.7,4.7c-6.7,1.7-1.5-8.9-1.5-8.9
	c0.1-0.4,0.6-0.5,1-0.4s0.5,0.6,0.4,1c0,0-3.7,7.7-0.2,6.8c4.8-1.2,10.3-9.7,10.3-9.7c0.1-0.2,0.4-0.4,0.6-0.4
	C161,251,161.1,251,161.3,251.2z M153.2,248.2c0.2,0.4,0.1,0.9-0.2,1.1c-1.1,0.6-1.7,1.6-1.7,1.6c-0.2,0.4-0.7,0.5-1.1,0.2
	s-0.5-0.7-0.2-1.1c0,0,0.9-1.2,2.1-2.1c0.1-0.1,0.2-0.1,0.4-0.1C152.8,247.8,153.1,247.9,153.2,248.2z"/>
<path id="_x36_" class="st2" d="M279,244.1c-0.4-0.2-0.5-0.7-0.2-1.1c4.6-7.1,4.5-11.2,1.4-13.2c-7.1-4.6-28.4,0.6-47.8,8.2
	c-19.3,7.6-36.5,17.5-35.5,22.6c0.9,4.7,17.4,5.5,62.4-3.1c0.5-0.1,0.9,0.2,1,0.6s-0.1,0.7-0.5,0.9c-5.1,2.4-7.7,4.5-8.4,6
	c-0.2,0.6-0.2,1.1,0,1.5c0.4,0.5,1.1,0.9,2.1,1.1c3.5,1,9.7,0.5,16.1-2.2c0.4-0.1,0.9,0,1.1,0.5c0.1,0.4,0,0.9-0.5,1.1
	c-7,2.9-13.5,3.5-17.3,2.4c-1.4-0.4-2.4-1-3-1.7c-0.6-0.9-0.7-2-0.2-3.1c0.6-1.2,2-2.7,4.5-4.3c-42.4,7.7-58.1,6.2-59.1,0.9
	c-1.1-6,16.6-16.6,36.5-24.5c19.7-7.8,41.7-12.9,49.3-8.1c4,2.5,4.3,7.5-0.9,15.4l0,0C279.9,244.2,279.4,244.3,279,244.1z"/>
<path id="_x37_" class="st2" d="M280.4,264.6c0.1,0.4,0,0.9-0.4,1c-1.2,0.5-2.1,0.4-2.9-0.2c-1.1-1.1-1.1-3.6-0.4-6.8
	c0.6-3,1.9-6.6,3.2-10.1c2.9-7,6.6-13.4,8.2-12.9c0.2,0,0.5,0.1,0.6,0.4c0.5,0.4,0.7,1.1,0.9,2.2c0.1,0.9,0,2.1-0.4,3.6
	c-1,3.6-3.9,9.1-10.4,16.4c-0.2,0.2-0.5,0.5-0.7,0.7c-0.6,2.7-0.7,4.7,0,5.3c0.2,0.2,0.6,0.2,1.1,0
	C279.8,264.1,280.3,264.2,280.4,264.6z M279,255.8c5.5-6.3,7.9-11.2,8.8-14.3c0.4-1.4,0.5-2.4,0.4-3.1c-0.1-0.6-0.2-1-0.4-1.2l0,0
	c-0.9-0.2-3.9,5.6-6.5,12C280.5,251.3,279.6,253.7,279,255.8z"/>
<path id="_x38_" class="st2" d="M288.3,257.6c-0.4-0.2-0.5-0.7-0.2-1.1c0.7-1.2,1.1-1.9,1-2.2c0,0-0.2,0-0.5,0
	c-0.6,0.1-1.4,0.5-2.1,1c-1,0.7-1.9,1.9-1.5,2.9c0.2,0.7,1,1.7,1.7,2.7l0.1,0.2c4.6-1.9,8.7-3.4,8.7-3.4c0.4-0.1,0.9,0.1,1,0.5
	s-0.1,0.9-0.5,1c0,0-4.2,1.5-8.3,3.2c0.7,1,1.2,2.1,1.2,3.1c0,2-1.6,3.5-7.8,3.5c-10.9,0-3.4-4,4.5-7.2c-0.7-1-1.9-2-2.2-3
	c-0.6-1.7,0.5-3.5,2-4.6c0.9-0.6,1.9-1.1,2.7-1.2c1.1-0.2,2.1,0.1,2.2,1.2c0.1,0.7-0.1,1.9-1.2,3.5
	C289.2,257.8,288.7,257.8,288.3,257.6z M286.5,262.8c-5.5,2.4-12.4,4.8-5.2,4.5c5-0.4,6.5-0.9,6.5-1.9
	C287.7,264.7,287.2,263.7,286.5,262.8z"/>
<path id="_x39_" class="st2" d="M316.7,258.1c0.1,0.4-0.1,0.9-0.6,0.9c0,0-9.3,2.2-11.9,3.9c-1.1,0.7-1.7,0.7-2.1,0.1
	c-0.2-0.4-0.1-0.9,0.1-1.5c0.4-0.9,0.9-2.4,0.2-3.9c-0.7-2-8.2,9.4-8.2,9.4c-0.2,0.4-0.7,0.5-1.1,0.2c-0.2-0.2-0.4-0.5-0.2-0.9l0,0
	c6.6-20.7,11.2-31.2,13.9-35.3c1.9-2.6,3.1-3,4-1.6c0.5,0.9,0.5,2.9,0,5.5c-1.4,6.5-6,17.4-13.8,23.7c-0.4,1.1-0.7,2.4-1.1,3.5
	c2.9-3.7,6.8-8.1,7.9-5.1c0.6,1.6,0.4,3.1,0,4.2c3.2-1.6,11.8-3.7,11.9-3.7C316,257.4,316.5,257.6,316.7,258.1z M297.9,255.8
	c6.3-6.2,10.1-15.4,11.3-21.1c0.5-2.2,0.5-3.7,0.2-4.3c0-0.1-0.5,0.4-1.4,1.7C305.9,235.3,302.5,242.5,297.9,255.8z"/>
<path id="_x31_0" class="st2" d="M323.6,256.6c0.2-0.2,0.5-0.5,0.9-0.7c0.2-0.2,0.7-0.2,1.1,0c0.2,0.2,0.2,0.5,0.1,0.9
	c-1.2,3-1.6,4.2-1.4,4.3c0.6,0.2,3.4-2.1,5.7-4.2c2.4-2,4.5-3.9,5.5-3.5c0.7,0.2,1,0.7,0.6,2l-0.6,3.6c2-3.4,4.7-7.6,5.8-8.1
	c0.6-0.2,1.1-0.1,1.4,0.5c0.4,0.7-0.2,3.1-1,5.5c-0.2,1-0.6,1.9-0.7,2.6c0.2-0.5,0.6-1.1,0.9-1.6c0.7-1.5,1.5-2.9,2.1-3.1
	c0.5-0.2,1-0.1,1.2,0.5c0.4,0.7,0.5,1.5,0.7,2.4c0.4,1.1,0.6,2.2,1.1,2.9c0.7,0.9,2.5,0.6,6.5-3c0.4-0.2,0.7-0.2,1.1,0.1
	c0.2,0.4,0.2,0.7-0.1,1.1c-4.8,4.3-7.2,4.3-8.6,2.7c-0.7-0.9-1.1-2.1-1.5-3.5c-0.1-0.4-0.2-0.7-0.4-1.1c-0.2,0.5-0.6,1.1-1,1.7
	c-0.5,0.9-1,1.9-1.5,2.5c-0.6,1-1.2,1.5-2,1.1h-0.1c-0.9-0.6-0.1-3.1,0.6-5.7c0.4-1.2,0.7-2.5,0.9-3.2c-2.1,2.6-6.6,10.6-6.6,10.6
	c-0.1,0.2-0.5,0.5-0.9,0.4s-0.7-0.5-0.6-0.9l1.5-7.8c-0.7,0.5-2.1,1.7-3.6,3c-2.9,2.4-5.8,5.1-7.3,4.5c-0.7-0.4-1-1.4-0.5-3.6
	c-2.9,2.2-4.8,3.1-6.2,3.1c-1.5,0-2.2-0.7-2.4-2c-0.1-1,0.4-2.1,1.4-3c1.4-1.4,3.9-2.2,7.1-1.1C323.4,256.1,323.6,256.4,323.6,256.6
	z M322.6,257.5c-2.6-0.9-4.5-0.2-5.6,0.7c-0.6,0.6-0.9,1.2-0.9,1.7c0,0.4,0.2,0.5,0.9,0.5C318.1,260.5,320,259.7,322.6,257.5
	L322.6,257.5z"/>
<path id="_x31_1" class="st2" d="M358.9,256c0.2-0.2,0.4-0.4,0.4-0.4c0.2-0.2,0.7-0.2,1.1,0c0.1,0.1,0.2,0.4,0.2,0.6l0,0
	c0,0-0.2,3.4,1.4,3.1c1.4-0.2,3.2-2,4.5-3.2c0.9-0.7,2.9-2.7,3.6-2.5c0.9,0.5-0.2,3-0.9,4.8c2.5-3,6.5-7,6.6-3.2
	c0.1,2.6,0.4,4.2,1.2,4.6c1,0.4,2.7-0.2,5.7-2.2c0.4-0.2,0.9-0.1,1.1,0.2c0.2,0.4,0.1,0.9-0.2,1c-3.5,2.2-5.6,3-7.1,2.4
	s-2-2.5-2.1-5.7c0-1-5.5,5.8-6,6.5c-0.1,0.2-0.5,0.4-0.9,0.4c-0.4-0.1-0.6-0.5-0.6-0.9c0,0,1.1-4.1,1.6-5.3c0,0-0.5,0.5-1,1
	c-1.4,1.4-3.5,3.4-5.3,3.6c-2.1,0.4-2.9-1.5-3.1-3c-2.1,1.7-6,4.7-6.6,2.4c-0.1-0.4-0.1-0.9,0-1.2c0.2-0.9,1-1.7,1.9-2.5
	c0.9-0.6,1.9-1.2,2.6-1.4c0.5-0.1,0.9-0.1,1.2,0C358.8,255.3,359,255.6,358.9,256z M357.9,256.5c-0.1,0-0.2,0-0.5,0
	c-0.6,0.1-1.4,0.5-2,1.1c-0.6,0.5-1.1,1.1-1.4,1.7c0,0.1-0.1,0.4,0,0.5c0.1,0.4,2.6-1.9,4.1-3.2C358.1,256.6,358,256.6,357.9,256.5z
	"/>
<path id="_x31_2" class="st2" d="M387,257.1c0,0.4-0.4,0.6-0.7,0.6c-2.9,0-5.3,4.2-2.5,3.9c0.2,0,0.6-0.5,1.1-1c0.9-1,2-2.5,3.2-4.3
	c0.6-2.2,1.4-4.6,2.1-7.1c2.4-7.2,5.2-14.4,7.1-16.3c0.7-0.7,1.4-1,2-0.4c0.2,0.1,0.4,0.4,0.4,0.6c0.6,2-1.6,7.8-4.7,13.8
	c-1.7,3.5-3.7,7-5.6,9.8c-1.1,4.3-1.9,7.9-1.6,9.4c0,0.2-0.1,0.4-0.1,0.4c0.4-0.1,0.7,0.1,0.7,0.5s-0.2,0.7-0.6,0.9
	c-0.9,0.2-1.2-0.4-1.5-1.4c-0.1-1.2,0.2-3.7,0.9-6.7c-0.5,0.6-1,1.2-1.5,1.7c-0.6,0.6-1.2,1.1-1.7,1.4c-1.2,0.5-2.1,0.4-2.6-0.1
	c-0.4-0.4-0.6-0.9-0.6-1.5c0-2.5,2.1-5,5.3-4.8C386.7,256.4,387,256.8,387,257.1z M393.8,246.6c2.9-5.7,5.1-11.1,4.6-12.8
	c0-0.1,0-0.1-0.1-0.1c0,0,0,0.1-0.1,0.2c-1.6,1.7-4.3,8.7-6.7,15.8c-0.2,0.9-0.6,1.7-0.9,2.6C391.8,250.4,392.8,248.4,393.8,246.6z"
	/>
<path id="_x31_3" class="st2" d="M394.7,256.1c0.4,0.2,0.4,0.7,0.1,1.1c-0.9,1.1-1.5,2-1.7,2.7c-0.1,0.4-0.1,0.6-0.1,0.7
	s0.1,0.1,0.2,0.2s0.4,0.1,0.7,0.1c0.9,0,2.4-0.4,3.9-1c2.2-0.9,4.5-2,5.1-2.5c0.4-0.2,0.9-0.1,1.1,0.1c0.2,0.4,0.1,0.9-0.1,1.1
	c-0.7,0.5-3.1,1.7-5.5,2.6c-1.6,0.6-3.2,1.1-4.3,1.1c-0.5,0-1-0.1-1.4-0.2c-0.6-0.2-0.9-0.7-1-1.2s0-1,0.1-1.6c0.4-0.9,1-2,2-3.2
	c0.1-0.1,0.4-0.2,0.6-0.2C394.4,255.9,394.5,256,394.7,256.1z M398.8,251c0.1,0.4-0.1,0.9-0.6,0.9c-1.2,0.2-2.2,2.5-2.2,2.5
	c-0.1,0.4-0.6,0.5-1,0.4s-0.5-0.6-0.4-1c0,0,1.4-3,3.4-3.4h0.1C398.4,250.4,398.6,250.7,398.8,251z"/>
</svg>
